<?xml version="1.0" standalone="no"?><!DOCTYPE svg PUBLIC "-//W3C//DTD SVG 1.1//EN" "http://www.w3.org/Graphics/SVG/1.1/DTD/svg11.dtd"><svg t="1561736919587" class="icon" viewBox="0 0 1024 1024" version="1.1" xmlns="http://www.w3.org/2000/svg" p-id="2683" xmlns:xlink="http://www.w3.org/1999/xlink" width="32" height="32"><defs><style type="text/css"></style></defs><path d="M924.792 895.746l-383.83-384.758 381.808-382.733c7.997-8.017 7.997-21.016 0-29.032-7.999-8.018-20.962-8.018-28.962 0l-381.809 382.732-381.808-382.732c-7.997-8.018-20.964-8.018-28.962 0-7.996 8.018-7.996 21.016 0 29.032l381.809 382.733-383.831 384.758c-7.996 8.017-7.996 21.016 0 29.032 3.998 4.007 9.24 6.012 14.482 6.012 5.241 0 10.483-2.005 14.482-6.012l383.83-384.758 383.83 384.758c3.999 4.007 9.239 6.012 14.482 6.012s10.481-2.005 14.482-6.012c7.996-8.017 7.996-21.016-0.001-29.032z" p-id="2684" fill="#919191"></path></svg>