<?xml version="1.0" standalone="no"?><!DOCTYPE svg PUBLIC "-//W3C//DTD SVG 1.1//EN" "http://www.w3.org/Graphics/SVG/1.1/DTD/svg11.dtd"><svg class="icon" width="32px" height="32.00px" viewBox="0 0 1024 1024" version="1.1" xmlns="http://www.w3.org/2000/svg"><path fill="#BBBCC1" d="M629.284571 749.714286l41.947429 41.910857a18.285714 18.285714 0 0 1-25.892571 25.892571l-73.142858-73.142857a18.285714 18.285714 0 0 1 0-25.892571l73.142858-73.142857a18.285714 18.285714 0 0 1 25.892571 25.892571L629.284571 713.142857H694.857143a201.142857 201.142857 0 0 0 0-402.285714h-146.285714a18.285714 18.285714 0 1 1 0-36.571429h146.285714a237.714286 237.714286 0 1 1 0 475.428572h-65.572572z m-234.569142-475.428572L352.768 232.374857a18.285714 18.285714 0 1 1 25.892571-25.892571l73.142858 73.142857a18.285714 18.285714 0 0 1 0 25.892571l-73.142858 73.142857a18.285714 18.285714 0 0 1-25.892571-25.892571L394.715429 310.857143H329.142857a201.142857 201.142857 0 0 0 0 402.285714h146.285714a18.285714 18.285714 0 1 1 0 36.571429H329.142857a237.714286 237.714286 0 1 1 0-475.428572h65.572572z" /></svg>