<?xml version="1.0" standalone="no"?><!DOCTYPE svg PUBLIC "-//W3C//DTD SVG 1.1//EN" "http://www.w3.org/Graphics/SVG/1.1/DTD/svg11.dtd"><svg class="icon" width="32px" height="32.00px" viewBox="0 0 1024 1024" version="1.1" xmlns="http://www.w3.org/2000/svg"><path fill="#BBBCC1" d="M787.909973 882.152107c-3.23584 1.672533-7.31136 2.392747-12.21632 2.392746-10.656427 0-19.64032-5.751467-24.548693-15.571626-3.2256-6.587733-4.06528-13.888853-1.672533-20.473174 2.392747-6.59456 7.307947-12.21632 13.888853-15.57504 125.740373-62.153387 203.339093-183.821653 203.339093-316.2624 0-138.909013-87.299413-266.451627-222.02368-325.24288-6.58432-3.232427-11.373227-8.147627-14.72512-14.728533-2.392747-6.591147-2.392747-13.888853 0-21.1968 4.068693-9.82016 13.888853-16.285013 25.265494-16.285013 4.068693 0 7.307947 0.83968 10.656426 2.399573C920.95488 208.667307 1020.586667 355.723947 1020.586667 516.672853c0 153.87648-88.97536 293.628587-232.676694 365.479254z m47.418027-354.587307c0 125.023573-94.723413 224.65536-212.319573 224.65536-14.72512 0-26.944853-12.212907-26.944854-26.948267 0-14.728533 12.212907-26.948267 26.944854-26.948266 87.299413 0 158.43328-76.755627 158.43328-171.60192 0-94.839467-71.0144-171.598507-158.43328-171.598507-14.72512 0-26.944853-12.212907-26.944854-26.948267s12.212907-26.948267 26.944854-26.948266c117.599573-0.105813 212.319573 101.321387 212.319573 226.338133z m-314.34752 415.901013c-13.052587 0-26.098347-6.591147-37.60128-17.964373L231.185067 672.105813H73.591467c-38.324907 0-70.178133-31.853227-70.178134-70.2976v-178.906453c0-39.28064 31.85664-71.133867 70.178134-71.133867h156.75392l252.20096-253.27616c11.37664-11.48928 24.548693-17.96096 37.60128-17.96096 23.709013 0 39.99744 20.476587 39.99744 49.8176v763.17696c0.836267 29.46048-15.45216 49.94048-39.164587 49.94048zM506.25536 153.224533l-253.037227 253.392214H73.591467a16.30208 16.30208 0 0 0-16.285014 16.285013v178.189653a16.30208 16.30208 0 0 0 16.285014 16.285014h179.626666l253.037227 253.272746V153.224533z" /></svg>